<svg version="1.1" id="_x32_" xmlns="http://www.w3.org/2000/svg" xmlns:xlink="http://www.w3.org/1999/xlink" viewBox="0 0 512 512" xml:space="preserve" fill="#F5F7F9"><g id="SVGRepo_bgCarrier" stroke-width="0"></g><g id="SVGRepo_tracerCarrier" stroke-linecap="round" stroke-linejoin="round"></g><g id="SVGRepo_iconCarrier"> <style type="text/css"> .st0{fill:#<svg viewBox="0 0 8.4666669 8.4666669" id="svg8" version="1.1" xmlns="http://www.w3.org/2000/svg" xmlns:cc="http://creativecommons.org/ns#" xmlns:dc="http://purl.org/dc/elements/1.1/" xmlns:inkscape="http://www.inkscape.org/namespaces/inkscape" xmlns:rdf="http://www.w3.org/1999/02/22-rdf-syntax-ns#" xmlns:sodipodi="http://sodipodi.sourceforge.net/DTD/sodipodi-0.dtd" xmlns:svg="http://www.w3.org/2000/svg" fill="#F5F7F9"><g id="SVGRepo_bgCarrier" stroke-width="0"></g><g id="SVGRepo_tracerCarrier" stroke-linecap="round" stroke-linejoin="round"></g><g id="SVGRepo_iconCarrier"> <defs id="defs2"></defs> <g id="layer1" transform="translate(0,-288.53332)"> <path d="M 5 1 A 1.0000999 1.0000999 0 0 0 4 2 L 4 30 A 1.0000999 1.0000999 0 0 0 5 31 L 27 31 A 1.0000999 1.0000999 0 0 0 28 30 L 28 9 A 1.0000999 1.0000999 0 0 0 27.707031 8.2929688 L 20.707031 1.2929688 A 1.0000999 1.0000999 0 0 0 20 1 L 5 1 z M 6 3 L 19.001953 3 L 19.001953 8.9980469 C 18.99982 9.5505004 19.445584 9.9999878 19.998047 10.001953 L 26 10.001953 L 26 29 L 6 29 L 6 3 z M 21.001953 4.4160156 L 24.587891 8.0019531 L 21.001953 8.0019531 L 21.001953 4.4160156 z " id="rect996" style="color:#F5F7F9;font-style:normal;font-variant:normal;font-weight:normal;font-stretch:normal;font-size:medium;line-height:normal;font-family:sans-serif;font-variant-ligatures:normal;font-variant-position:normal;font-variant-caps:normal;font-variant-numeric:normal;font-variant-alternates:normal;font-feature-settings:normal;text-indent:0;text-align:start;text-decoration:none;text-decoration-line:none;text-decoration-style:solid;text-decoration-color:#F5F7F9;letter-spacing:normal;word-spacing:normal;text-transform:none;writing-mode:lr-tb;direction:ltr;text-orientation:mixed;dominant-baseline:auto;baseline-shift:baseline;text-anchor:start;white-space:normal;shape-padding:0;clip-rule:nonzero;display:inline;overflow:visible;visibility:visible;opacity:1;isolation:auto;mix-blend-mode:normal;color-interpolation:sRGB;color-interpolation-filters:linearRGB;solid-color:#F5F7F9;solid-opacity:1;vector-effect:none;fill:#F5F7F9;fill-opacity:1;fill-rule:nonzero;stroke:none;stroke-width:1.99999988;stroke-linecap:round;stroke-linejoin:round;stroke-miterlimit:4;stroke-dasharray:none;stroke-dashoffset:0;stroke-opacity:1;paint-order:stroke fill markers;color-rendering:auto;image-rendering:auto;shape-rendering:auto;text-rendering:auto;enable-background:accumulate" transform="matrix(0.26458333,0,0,0.26458333,0,288.53332)"></path> <path d="m 2.8847656,291.70898 a 0.26495432,0.26495432 0 0 0 0.025391,0.5293 h 2.6464844 a 0.26465,0.26465 0 1 0 0,-0.5293 H 2.9101562 a 0.26460981,0.26460981 0 0 0 -0.025391,0 z" id="path1009" style="color:#F5F7F9;font-style:normal;font-variant:normal;font-weight:normal;font-stretch:normal;font-size:medium;line-height:normal;font-family:sans-serif;font-variant-ligatures:normal;font-variant-position:normal;font-variant-caps:normal;font-variant-numeric:normal;font-variant-alternates:normal;font-feature-settings:normal;text-indent:0;text-align:start;text-decoration:none;text-decoration-line:none;text-decoration-style:solid;text-decoration-color:#F5F7F9;letter-spacing:normal;word-spacing:normal;text-transform:none;writing-mode:lr-tb;direction:ltr;text-orientation:mixed;dominant-baseline:auto;baseline-shift:baseline;text-anchor:start;white-space:normal;shape-padding:0;clip-rule:nonzero;display:inline;overflow:visible;visibility:visible;opacity:1;isolation:auto;mix-blend-mode:normal;color-interpolation:sRGB;color-interpolation-filters:linearRGB;solid-color:#F5F7F9;solid-opacity:1;vector-effect:none;fill:#F5F7F9;fill-opacity:1;fill-rule:nonzero;stroke:none;stroke-width:0.5291667;stroke-linecap:round;stroke-linejoin:miter;stroke-miterlimit:4;stroke-dasharray:none;stroke-dashoffset:0;stroke-opacity:1;color-rendering:auto;image-rendering:auto;shape-rendering:auto;text-rendering:auto;enable-background:accumulate"></path> <path d="m 2.9101562,293.29492 a 0.26465,0.26465 0 1 0 0,0.5293 h 2.6464844 a 0.26465,0.26465 0 1 0 0,-0.5293 z" id="path1011" style="color:#F5F7F9;font-style:normal;font-variant:normal;font-weight:normal;font-stretch:normal;font-size:medium;line-height:normal;font-family:sans-serif;font-variant-ligatures:normal;font-variant-position:normal;font-variant-caps:normal;font-variant-numeric:normal;font-variant-alternates:normal;font-feature-settings:normal;text-indent:0;text-align:start;text-decoration:none;text-decoration-line:none;text-decoration-style:solid;text-decoration-color:#F5F7F9;letter-spacing:normal;word-spacing:normal;text-transform:none;writing-mode:lr-tb;direction:ltr;text-orientation:mixed;dominant-baseline:auto;baseline-shift:baseline;text-anchor:start;white-space:normal;shape-padding:0;clip-rule:nonzero;display:inline;overflow:visible;visibility:visible;opacity:1;isolation:auto;mix-blend-mode:normal;color-interpolation:sRGB;color-interpolation-filters:linearRGB;solid-color:#F5F7F9;solid-opacity:1;vector-effect:none;fill:#F5F7F9;fill-opacity:1;fill-rule:nonzero;stroke:none;stroke-width:0.5291667;stroke-linecap:round;stroke-linejoin:miter;stroke-miterlimit:4;stroke-dasharray:none;stroke-dashoffset:0;stroke-opacity:1;color-rendering:auto;image-rendering:auto;shape-rendering:auto;text-rendering:auto;enable-background:accumulate"></path> <path d="m 2.9101562,294.88281 a 0.26465,0.26465 0 1 0 0,0.5293 h 2.6464844 a 0.26465,0.26465 0 1 0 0,-0.5293 z" id="path1013" style="color:#F5F7F9;font-style:normal;font-variant:normal;font-weight:normal;font-stretch:normal;font-size:medium;line-height:normal;font-family:sans-serif;font-variant-ligatures:normal;font-variant-position:normal;font-variant-caps:normal;font-variant-numeric:normal;font-variant-alternates:normal;font-feature-settings:normal;text-indent:0;text-align:start;text-decoration:none;text-decoration-line:none;text-decoration-style:solid;text-decoration-color:#F5F7F9;letter-spacing:normal;word-spacing:normal;text-transform:none;writing-mode:lr-tb;direction:ltr;text-orientation:mixed;dominant-baseline:auto;baseline-shift:baseline;text-anchor:start;white-space:normal;shape-padding:0;clip-rule:nonzero;display:inline;overflow:visible;visibility:visible;opacity:1;isolation:auto;mix-blend-mode:normal;color-interpolation:sRGB;color-interpolation-filters:linearRGB;solid-color:#F5F7F9;solid-opacity:1;vector-effect:none;fill:#F5F7F9;fill-opacity:1;fill-rule:nonzero;stroke:none;stroke-width:0.5291667;stroke-linecap:round;stroke-linejoin:miter;stroke-miterlimit:4;stroke-dasharray:none;stroke-dashoffset:0;stroke-opacity:1;color-rendering:auto;image-rendering:auto;shape-rendering:auto;text-rendering:auto;enable-background:accumulate"></path> </g> </g></svg>;} </style> <g> <rect x="119.256" y="222.607" class="st0" width="50.881" height="50.885"></rect> <rect x="341.863" y="222.607" class="st0" width="50.881" height="50.885"></rect> <rect x="267.662" y="222.607" class="st0" width="50.881" height="50.885"></rect> <rect x="119.256" y="302.11" class="st0" width="50.881" height="50.885"></rect> <rect x="267.662" y="302.11" class="st0" width="50.881" height="50.885"></rect> <rect x="193.46" y="302.11" class="st0" width="50.881" height="50.885"></rect> <rect x="341.863" y="381.612" class="st0" width="50.881" height="50.885"></rect> <rect x="267.662" y="381.612" class="st0" width="50.881" height="50.885"></rect> <rect x="193.46" y="381.612" class="st0" width="50.881" height="50.885"></rect> <path class="st0" d="M439.277,55.046h-41.376v39.67c0,14.802-12.195,26.84-27.183,26.84h-54.025 c-14.988,0-27.182-12.038-27.182-26.84v-39.67h-67.094v39.297c0,15.008-12.329,27.213-27.484,27.213h-53.424 c-15.155,0-27.484-12.205-27.484-27.213V55.046H72.649c-26.906,0-48.796,21.692-48.796,48.354v360.246 c0,26.661,21.89,48.354,48.796,48.354h366.628c26.947,0,48.87-21.692,48.87-48.354V103.4 C488.147,76.739,466.224,55.046,439.277,55.046z M453.167,462.707c0,8.56-5.751,14.309-14.311,14.309H73.144 c-8.56,0-14.311-5.749-14.311-14.309V178.089h394.334V462.707z"></path> <path class="st0" d="M141.525,102.507h53.392c4.521,0,8.199-3.653,8.199-8.144v-73.87c0-11.3-9.27-20.493-20.666-20.493h-28.459 c-11.395,0-20.668,9.192-20.668,20.493v73.87C133.324,98.854,137.002,102.507,141.525,102.507z"></path> <path class="st0" d="M316.693,102.507h54.025c4.348,0,7.884-3.513,7.884-7.826V20.178C378.602,9.053,369.474,0,358.251,0H329.16 c-11.221,0-20.349,9.053-20.349,20.178v74.503C308.81,98.994,312.347,102.507,316.693,102.507z"></path> </g> </g></svg>