<svg xmlns="http://www.w3.org/2000/svg" xmlns:xlink="http://www.w3.org/1999/xlink" viewBox="0 0 1049.42 349.23"><defs><style>.cls-1{fill:url(#Áåçûìÿííûé_ãðàäèåíò_25);}.cls-2{fill:#fff;}</style><linearGradient id="Áåçûìÿííûé_ãðàäèåíò_25" x1="86.22" y1="98.87" x2="223.85" y2="98.87" gradientUnits="userSpaceOnUse"><stop offset="0" stop-color="#00eea8"/><stop offset="1" stop-color="#3f56ef"/></linearGradient></defs><g id="Réteg_2" data-name="Réteg 2"><g id="Layer_1" data-name="Layer 1"><rect class="cls-1" x="89.54" y="82.15" width="133.21" height="33.43"/><rect class="cls-2" x="138.91" y="142.75" width="34.74" height="122.24"/><path class="cls-2" d="M348.91,189v3.4c0,24.81-13.58,40-35.26,40-21.95,0-35.27-15.15-35.27-40V82.15H243.64v111c0,45.71,27.43,73.92,70,73.92,38.91,0,65.3-23.77,69.47-63.21Z"/><polygon class="cls-2" points="383.65 82.15 383.65 173.05 348.91 157.9 348.91 82.15 383.65 82.15"/><path class="cls-2" d="M565.7,173.57c0,53.55-35.26,91.42-95.86,91.42H411.07V179.32h34.74v52.5h23.24c38.4,0,61.91-23.25,61.91-58.25,0-34.74-23.51-58-61.91-58h-58V82.15h58.77C530.44,82.15,565.7,120.28,565.7,173.57Z"/><rect class="cls-2" x="587.37" y="82.15" width="119.89" height="33.43"/><rect class="cls-2" x="586.59" y="157.11" width="111.79" height="33.17"/><rect class="cls-2" x="586.59" y="231.82" width="121.46" height="33.17"/><path class="cls-2" d="M792.93,202.3H767.6V265H732.86V169.13h66.87c17.23,0,28.21-11.23,28.21-26.91s-11-26.64-28.21-26.64H732.86V82.15h67.65c40.75,0,63.47,26.64,63.47,60.07,0,24.56-12,45.45-34.74,54.86L868.42,265H829.24Z"/><path class="cls-2" d="M1049.42,265H1010L964.8,134.39,919.61,265H880.17L947,82.15h35.53Z"/><path class="cls-2" d="M447.67,58.42V0H0V349.23H447.67V290.81h-37v21.42H37V37H410.67V58.42Z"/></g></g></svg>